<mxfile host="app.diagrams.net" agent="Mozilla/5.0 (Windows NT 10.0; Win64; x64) AppleWebKit/537.36 (KHTML, like Gecko) Chrome/130.0.0.0 Safari/537.36 Edg/130.0.0.0" version="24.8.3">
  <diagram name="Page-1" id="1JWzLSj3_CaTiQ_Oo315">
    <mxGraphModel dx="1674" dy="873" grid="1" gridSize="10" guides="1" tooltips="1" connect="1" arrows="1" fold="1" page="1" pageScale="1" pageWidth="827" pageHeight="1169" math="0" shadow="0">
      <root>
        <mxCell id="0" />
        <mxCell id="1" parent="0" />
        <mxCell id="sVelxvANcI3pNR6OnOJM-1" value="Start" style="ellipse;whiteSpace=wrap;html=1;" parent="1" vertex="1">
          <mxGeometry x="354" y="40" width="120" height="40" as="geometry" />
        </mxCell>
        <mxCell id="sVelxvANcI3pNR6OnOJM-2" value="" style="endArrow=none;html=1;rounded=0;" parent="1" edge="1">
          <mxGeometry width="50" height="50" relative="1" as="geometry">
            <mxPoint x="413" y="120" as="sourcePoint" />
            <mxPoint x="413" y="80" as="targetPoint" />
          </mxGeometry>
        </mxCell>
        <mxCell id="YbFDu_-9qELbCVY-e6M8-5" style="edgeStyle=orthogonalEdgeStyle;rounded=0;orthogonalLoop=1;jettySize=auto;html=1;exitX=0.5;exitY=1;exitDx=0;exitDy=0;" parent="1" source="sVelxvANcI3pNR6OnOJM-3" target="YbFDu_-9qELbCVY-e6M8-6" edge="1">
          <mxGeometry relative="1" as="geometry">
            <mxPoint x="413.8767123287671" y="320" as="targetPoint" />
          </mxGeometry>
        </mxCell>
        <mxCell id="sVelxvANcI3pNR6OnOJM-3" value="input(&quot;Enter any character:&quot;)" style="shape=parallelogram;perimeter=parallelogramPerimeter;whiteSpace=wrap;html=1;fixedSize=1;" parent="1" vertex="1">
          <mxGeometry x="319" y="240" width="190" height="40" as="geometry" />
        </mxCell>
        <mxCell id="sVelxvANcI3pNR6OnOJM-4" value="" style="endArrow=none;html=1;rounded=0;" parent="1" edge="1">
          <mxGeometry width="50" height="50" relative="1" as="geometry">
            <mxPoint x="413" y="240" as="sourcePoint" />
            <mxPoint x="413" y="190" as="targetPoint" />
          </mxGeometry>
        </mxCell>
        <mxCell id="YbFDu_-9qELbCVY-e6M8-16" style="edgeStyle=orthogonalEdgeStyle;rounded=0;orthogonalLoop=1;jettySize=auto;html=1;exitX=0.5;exitY=1;exitDx=0;exitDy=0;entryX=0;entryY=0.5;entryDx=0;entryDy=0;" parent="1" source="sVelxvANcI3pNR6OnOJM-7" target="qjCdpQxu3aJA2pxIj4M8-2" edge="1">
          <mxGeometry relative="1" as="geometry" />
        </mxCell>
        <mxCell id="sVelxvANcI3pNR6OnOJM-7" value="print(&#39;You entered&#39;,a, &#39;in uppercase&#39;)" style="shape=parallelogram;perimeter=parallelogramPerimeter;whiteSpace=wrap;html=1;fixedSize=1;" parent="1" vertex="1">
          <mxGeometry x="80" y="480" width="240" height="40" as="geometry" />
        </mxCell>
        <mxCell id="sVelxvANcI3pNR6OnOJM-8" value="YES" style="text;html=1;align=center;verticalAlign=middle;resizable=0;points=[];autosize=1;strokeColor=none;fillColor=none;" parent="1" vertex="1">
          <mxGeometry x="195" y="338" width="50" height="30" as="geometry" />
        </mxCell>
        <mxCell id="sVelxvANcI3pNR6OnOJM-10" value="NO" style="text;html=1;align=center;verticalAlign=middle;resizable=0;points=[];autosize=1;strokeColor=none;fillColor=none;" parent="1" vertex="1">
          <mxGeometry x="600" y="338" width="40" height="30" as="geometry" />
        </mxCell>
        <mxCell id="YbFDu_-9qELbCVY-e6M8-10" style="edgeStyle=orthogonalEdgeStyle;rounded=0;orthogonalLoop=1;jettySize=auto;html=1;exitX=0.5;exitY=1;exitDx=0;exitDy=0;" parent="1" source="sVelxvANcI3pNR6OnOJM-12" edge="1">
          <mxGeometry relative="1" as="geometry">
            <mxPoint x="640.2941176470588" y="590" as="targetPoint" />
          </mxGeometry>
        </mxCell>
        <mxCell id="sVelxvANcI3pNR6OnOJM-12" value="if a in l_alpha" style="rhombus;whiteSpace=wrap;html=1;" parent="1" vertex="1">
          <mxGeometry x="590" y="450" width="100" height="100" as="geometry" />
        </mxCell>
        <mxCell id="YbFDu_-9qELbCVY-e6M8-12" style="edgeStyle=orthogonalEdgeStyle;rounded=0;orthogonalLoop=1;jettySize=auto;html=1;exitX=0.5;exitY=1;exitDx=0;exitDy=0;entryX=1;entryY=0.5;entryDx=0;entryDy=0;" parent="1" source="sVelxvANcI3pNR6OnOJM-14" target="qjCdpQxu3aJA2pxIj4M8-2" edge="1">
          <mxGeometry relative="1" as="geometry" />
        </mxCell>
        <mxCell id="sVelxvANcI3pNR6OnOJM-14" value="print(&#39;You entered&#39;,a, &#39;in lowercase&#39;)" style="shape=parallelogram;perimeter=parallelogramPerimeter;whiteSpace=wrap;html=1;fixedSize=1;" parent="1" vertex="1">
          <mxGeometry x="520" y="590" width="240" height="40" as="geometry" />
        </mxCell>
        <mxCell id="qjCdpQxu3aJA2pxIj4M8-2" value="STOP" style="ellipse;whiteSpace=wrap;html=1;" parent="1" vertex="1">
          <mxGeometry x="356" y="760" width="115" height="40" as="geometry" />
        </mxCell>
        <mxCell id="YbFDu_-9qELbCVY-e6M8-3" value="u_alpha = &#39;ABCDEFGHIJKLMNOPQRSTUVWXYZ&#39;&lt;div&gt;l_alpha = &#39;abcdefghijklmnopqrstuvwxyz&#39;&lt;/div&gt;" style="shape=parallelogram;perimeter=parallelogramPerimeter;whiteSpace=wrap;html=1;fixedSize=1;" parent="1" vertex="1">
          <mxGeometry x="260" y="120" width="300" height="80" as="geometry" />
        </mxCell>
        <mxCell id="YbFDu_-9qELbCVY-e6M8-7" style="edgeStyle=orthogonalEdgeStyle;rounded=0;orthogonalLoop=1;jettySize=auto;html=1;exitX=0;exitY=0.5;exitDx=0;exitDy=0;entryX=0.5;entryY=0;entryDx=0;entryDy=0;" parent="1" source="YbFDu_-9qELbCVY-e6M8-6" target="sVelxvANcI3pNR6OnOJM-7" edge="1">
          <mxGeometry relative="1" as="geometry" />
        </mxCell>
        <mxCell id="YbFDu_-9qELbCVY-e6M8-8" style="edgeStyle=orthogonalEdgeStyle;rounded=0;orthogonalLoop=1;jettySize=auto;html=1;exitX=1;exitY=0.5;exitDx=0;exitDy=0;entryX=0.5;entryY=0;entryDx=0;entryDy=0;" parent="1" source="YbFDu_-9qELbCVY-e6M8-6" target="sVelxvANcI3pNR6OnOJM-12" edge="1">
          <mxGeometry relative="1" as="geometry" />
        </mxCell>
        <mxCell id="YbFDu_-9qELbCVY-e6M8-6" value="if a in u_alpha" style="rhombus;whiteSpace=wrap;html=1;" parent="1" vertex="1">
          <mxGeometry x="364" y="320" width="100" height="100" as="geometry" />
        </mxCell>
      </root>
    </mxGraphModel>
  </diagram>
</mxfile>
